<svg width="32" height="32" viewBox="0 0 32 32" fill="none" xmlns="http://www.w3.org/2000/svg">
<g clip-path="url(#clip0_0_90)">
<path fill-rule="evenodd" clip-rule="evenodd" d="M26.3697 5.90613C27.8203 5.29537 29.3753 6.52194 29.1192 8.07486L26.094 26.4171C25.8023 28.1857 23.8599 29.2005 22.2373 28.3191C20.8796 27.5817 18.8652 26.4466 17.0497 25.2603C16.1432 24.6679 13.3673 22.7685 13.7085 21.4163C14.0003 20.2602 18.6668 15.9163 21.3335 13.333C22.3809 12.3182 21.9039 11.732 20.6668 12.6663C17.598 14.9841 12.6711 18.5079 11.0418 19.4997C9.60432 20.3746 8.85376 20.5239 7.95849 20.3746C6.32365 20.1022 4.80796 19.6803 3.57052 19.1674C1.89803 18.4741 1.97949 16.1757 3.56939 15.5063L26.3697 5.90613Z" fill="white"/>
</g>
<defs>
<clipPath id="clip0_0_90">
<rect width="32" height="32" fill="white"/>
</clipPath>
</defs>
</svg>
